<svg xmlns="http://www.w3.org/2000/svg">
  <symbol id="arrow" viewBox="0 0 20 12">
    <g>
      <path d="M0.319678 10.8252L0.974805 11.4849C1.18099 11.6909 1.4553 11.8044 1.74847 11.8044C2.04148 11.8044 2.31612 11.6909 2.5223 11.4849L9.99553 4.0113L17.4774 11.4931C17.6832 11.6992 17.9579 11.8125 18.2509 11.8125C18.5439 11.8125 18.8187 11.6992 19.0247 11.4931L19.68 10.8375C20.1067 10.4112 20.1067 9.71671 19.68 9.29037L10.772 0.350295C10.5661 0.144439 10.2918 -0.000603204 9.99618 -0.000603204H9.99276C9.69959 -0.000603204 9.42528 0.144602 9.21942 0.350295L0.319678 9.26614C0.113498 9.47199 0.000325342 9.7546 1.35672e-07 10.0476C1.35672e-07 10.3408 0.113498 10.6195 0.319678 10.8252Z"/>
    </g>
  </symbol>
  <symbol id="mob_desk" viewBox="0 0 2026 744">
    <g>
      <path d="M864 0H32C14.3 0 0 14.3 0 32V528C0 545.7 14.3 560 32 560H412V672H240C231.2 672 224 679.2 224 688V736C224 740.4 227.6 744 232 744H664C668.4 744 672 740.4 672 736V688C672 679.2 664.8 672 656 672H484V560H864C881.7 560 896 545.7 896 528V32C896 14.3 881.7 0 864 0ZM824 488H72V72H824V488Z"/>
      <path d="M1972.43 0H1587.14C1557.83 0 1534 23.8313 1534 53.1429V690.857C1534 720.169 1557.83 744 1587.14 744H1972.43C2001.74 744 2025.57 720.169 2025.57 690.857V53.1429C2025.57 23.8313 2001.74 0 1972.43 0ZM1965.79 684.214H1593.79V59.7857H1965.79V684.214ZM1746.57 599.518C1746.57 608.327 1750.07 616.775 1756.3 623.004C1762.53 629.233 1770.98 632.732 1779.79 632.732C1788.59 632.732 1797.04 629.233 1803.27 623.004C1809.5 616.775 1813 608.327 1813 599.518C1813 590.709 1809.5 582.261 1803.27 576.032C1797.04 569.803 1788.59 566.304 1779.79 566.304C1770.98 566.304 1762.53 569.803 1756.3 576.032C1750.07 582.261 1746.57 590.709 1746.57 599.518Z"/>
    </g>
</svg>
