<svg xmlns="http://www.w3.org/2000/svg">
  <symbol id="arrow" viewBox="0 0 20 12">
    <g>
      <path d="M0.319678 10.8252L0.974805 11.4849C1.18099 11.6909 1.4553 11.8044 1.74847 11.8044C2.04148 11.8044 2.31612 11.6909 2.5223 11.4849L9.99553 4.0113L17.4774 11.4931C17.6832 11.6992 17.9579 11.8125 18.2509 11.8125C18.5439 11.8125 18.8187 11.6992 19.0247 11.4931L19.68 10.8375C20.1067 10.4112 20.1067 9.71671 19.68 9.29037L10.772 0.350295C10.5661 0.144439 10.2918 -0.000603204 9.99618 -0.000603204H9.99276C9.69959 -0.000603204 9.42528 0.144602 9.21942 0.350295L0.319678 9.26614C0.113498 9.47199 0.000325342 9.7546 1.35672e-07 10.0476C1.35672e-07 10.3408 0.113498 10.6195 0.319678 10.8252Z"/>
    </g>
  </symbol>
</svg>
